<svg xmlns="http://www.w3.org/2000/svg" viewBox="0 0 98.23 105.23"><defs><style>.cls-1{fill:none;fill-rule:evenodd;}</style></defs><title>Blue Fill</title><g id="Layer_2" data-name="Layer 2"><g id="Layer_1-2" data-name="Layer 1"><path class="cls-1" d="M34.06,103.38a32.36,32.36,0,0,0,8.4,1.68,62.29,62.29,0,0,0,9.12,0,59,59,0,0,0,7.68-.48c2.3-.41,5.81-.74,7.92-1.2S75.1,101,75.1,101a226.52,226.52,0,0,1,7-23.28c1.29-3.41,5.19-13.66,6-15.6S94.33,49,95,47.46s.3-1.64.72-2.64a3.38,3.38,0,0,1,1.92-1.68c.26,0,.78-3.6.48-3.84s-14.4-15.36-14.4-15.36S73.35,13,70.54,10.74s-9.07-6.66-13.2-8.4S52,.29,48.94.18s-2-.46-5.28.24a20.6,20.6,0,0,0-7.2,3.36A126.32,126.32,0,0,0,24,15.54c-2.35,2.79-6.1,7.81-7,9.12s-5.22,6-6.48,8.16a50.88,50.88,0,0,1-6.48,7.44A11.7,11.7,0,0,1,.22,42.42c-1.16.35,2.64,6.24,2.64,6.24S14.61,66,15.58,67.62s6.52,11,7.2,12.72,7.28,13.45,8.4,17.76,1,4.8,1,4.8Z"/></g></g></svg>