<svg xmlns="http://www.w3.org/2000/svg" viewBox="0 0 299.49 160.33"><defs><style>.cls-1{fill:none;fill-rule:evenodd;}</style></defs><title>Stroke</title><g id="Layer_2" data-name="Layer 2"><g id="Layer_1-2" data-name="Layer 1"><path class="cls-1" d="M16.87,97.73S2,76.83.55,58.61C-.61,44-.2,22.29,4.39,15.17,9.26,7.63,14.11.76,24.55.05S39.43,6.29,39.43,6.29,45.63,18.36,46.15,25s3.8,19.71,6.48,22.32-.16,1.91,6,1.92S69,41.6,70.87,39.17,93.32,6.92,104.71,6.77s11.37,2,15.36,4.32,23.72,21.62,31.68,29.52c6.4,6.36,7,6.48,7,6.48"/><path class="cls-1" d="M158,53.09l6.48-30.24s1.22-3.29,3.6-3.84,4.59,2.11,5.52,4.08,4.84,13.1,5.76,19,.4,7.14-1.2,9.12-3.13.84-4.08-.24-3.3-3.8-4.56-10.32c-2.48,1.42-3.09.46-3.36,12"/><path class="cls-1" d="M177,29.33s4.29-12.86,7.68-14.16,6.05.73,6.48,1.92,6.08,11.25,5.76,20.64.28,9.25-1.44,11-6-5.12-7-7.68-1.29-6.46-1.44-6.24c-1.35.9-2.92,1.35-3.84,3.6"/><path class="cls-1" d="M181.51,58.85A34.93,34.93,0,0,1,190.39,62c3.51,2,54.81,25,60,26.4s13.74,5.64,19.68,7.2,20.54,5.55,23.52,7,4.94,1.79,5.76,3.6-2.4,7.2-2.4,7.2c-8.39-3.65-13.37-6.72-21.36-5.52-8.39.27-35-.11-39.6-.72-4.57-1.15-24-6.09-29-7s-21-.07-25.68-1.2c-4-1-12.72-5.76-12.72-5.76"/><path class="cls-1" d="M171.67,101.09s-5.64,20.93-2.4,31c5.75,2.06,6.15-2,13.2-.24s4.89,10.73,3.6,12S178,146.32,176,147.89"/><path class="cls-1" d="M166.39,100.85c-1.59,2.74-11.91,29.87-10.32,35.52s13.12,7.32,15.12,8.16,5.18,2.61,5.52,5.52.3,5.54-2.16,7-7.3-1.79-9.36-1.68-15.28-1.93-25.44,0-11.76-.17-13.44-2.4,3.42-41.12,5.28-45.12,3.84-13.68,3.84-13.68"/><path class="cls-1" d="M91.27,97c2,6.59,3.15,13,.48,20.4S74.6,129.8,72.07,132.53s-3,10.12-1,12,8.47-.92,12.48.48,4.41,2.89,4.8,4.56.08,7.75-1.44,9.84-7,.13-9.36-1-11.84-2.2-16.8-1.2-15.85,2.48-21.36,1.44-4-11.1-3.12-12.48,16.38-38.41,16.32-44.16"/><path class="cls-1" d="M97.51,117.89c.15,3.26-5.52,16.8-5.52,16.8,4,.87,5.83,1.28,7.92,4.08s.51,7.66-.72,8.88-10.32,1.2-10.32,1.2"/><path class="cls-1" d="M16.87,77.57s3.5,13.78,10.56,23.52"/><path class="cls-1" d="M28.63,88.13c1,3.81,4.11,12.23,6.72,14.4"/><path class="cls-1" d="M39.43,93.89a25.48,25.48,0,0,0,8.16,13.44"/><path class="cls-1" d="M165.43,63.65c0,3.42,3.41,8.63,5.28,10.56a44.56,44.56,0,0,0,8.88,6.72c2.72,1.4,6.77.31,7.68-.72s2-6.08,1.44-7.68c-2.82-1.55-6.15-2.84-8.64-4.56s-5.41-4.66-8.16-5.28-2.84-1-4.56-.48S165.43,63.65,165.43,63.65Z"/><path class="cls-1" d="M183.43,69.89s-1.42,4.45,2.88,10.8"/></g></g></svg>