<svg xmlns="http://www.w3.org/2000/svg" viewBox="0 0 63.03 43.15"><defs><style>.cls-1{fill:none;fill-rule:evenodd;}</style></defs><title>UCI</title><g id="Layer_2" data-name="Layer 2"><g id="Layer_1-2" data-name="Layer 1"><path class="cls-1" d="M4,9.07A5.41,5.41,0,0,0,.18,13.39c-.68,3.6.77,5.87,1.44,7.68s2.62,9.15,3.6,10.08c.71,1.47,4.22,7,6.24,8.88s1,1.71,4.08,2.64,2.57.36,3.84-.48,2.4-4.1,2.4-4.8.8-9.81.24-12,.46-8.57-1-13.2S20.19,6.59,19.62,6,14.67,4.72,12.9,5s.59,5,1,7,1.84,7.47,1.92,9.12a37.82,37.82,0,0,1-.48,7.44c-.38,1.15-1,2.78-1.92,3.12a3.45,3.45,0,0,1-3.12-1A18.36,18.36,0,0,1,8.1,26.59a27.12,27.12,0,0,1-1.92-5c-.34-1.88-1.18-5.63-1.2-7S4.08,11.28,4,9.07Z"/><path class="cls-1" d="M45.3,6.67s-2.35,4.31-5,5.76c-.8.05-.45-.14-.72-1.44s-1.47-3.47-2.4-3.84a2.17,2.17,0,0,0-2.4.72c-.52.61-1.34,4-1.44,5.52s.08,8.67.24,9.6,1.7,7.8,3.36,9.6,1.37,1.76,2.16,1.92,1.78-1,2.16-1.92A27.36,27.36,0,0,0,41.94,28c.06-.54,0-4.08,0-4.08,1.14,0,2.51.48,3.84,2.88s.65,6.07.24,7.68a18.34,18.34,0,0,1-3.36,6.24,5.7,5.7,0,0,1-5.52.72c-1.43-.75-4.41-2.42-5.76-5.52s-3.7-8.71-3.6-11.52S26.51,13,27.54,10.51c.6-3.3,1.07-6.19,4.08-8.64A9.57,9.57,0,0,1,39.3.19C40.22.37,44.43,3.14,45.3,6.67Z"/><path class="cls-1" d="M53,3.31S52.52,18,53,20.83s-.11,17.27.72,18.72a18,18,0,0,0,2.64-.24s3.5-.93,4.32-7,2-11.34,2.16-13.92.37-10.63,0-11.76S59.38,2.86,53,3.31Z"/></g></g></svg>