<svg xmlns="http://www.w3.org/2000/svg" viewBox="0 0 299.52 160.08"><defs><style>.cls-1{fill:none;fill-rule:evenodd;}</style></defs><title>Yellow Fill</title><g id="Layer_2" data-name="Layer 2"><g id="Layer_1-2" data-name="Layer 1"><path class="cls-1" d="M19.92,85.68,17.28,97.92,4.56,76.8,0,53.28,1,31l7-21.12L18.24,1.2,31.2,0l7,5,6,12,3.6,16.32,4.56,13,3.84,2.88,4.56,1,4.32,1,17,29.76,11,25,.72,4.56,3.84,5.28L96.48,125l-2.64,5.76-1.2,4.08L98.16,137l2.64,3.84-1,4.56-3.12,3.36-7.68.48-1,7.2-1.44,3.6H83.28l-7-1.68-5.76-1.2H64.32l-6,.24-8.16,1.2-8.4.24-5.28-2.64.24-5.76,2.88-10.32,5.28-13.92,6.72-17.52-3.12-1.2-2.88-2.16-2.88-3.84-2.16-4.08-1-2.16-4.08,7L30,91.68,27.36,99.6Z"/><path class="cls-1" d="M127.92,155l12,.72,14.16-1.2L168,156.24l6.24.72,2.16-2.88.48-6.48,6.72-2.4,3.84-3.12-.24-3.84-2.64-5.76-7-.72-5.52,1-3.36-1.2L169,121.2l.72-10.8,1.44-6.72,2.4-7.68,8.88,3.12H191l10.8.48L211.2,101l8.4,2.4,16.56,3.36,31,1,16.32.48,12.72,4.8,3.36-4.32-1.44-3.6-13-5-27.84-8.64-31.44-13-20.16-9.36-10.8-5L182.4,59s-4.8-2.5-6.72-5.28,1-1.68,1-1.68L180,49.44v-5l3.36-5.28s3-3.26,3.12-3.12,5.28,10.56,5.28,10.56l3.6,2.16,1.44-2.16-.24-12.72-2.88-12.48-4.08-5.52L185,15.6l-4.32,5.28-2.4,6.72-2.64-1.44-4.08-5L167,19.44,165.6,24,162,34.8l-2.16,10.8-5,1.68L134.4,97l-3.12,16.56L127.44,133l-.24,11.76Z"/><path class="cls-1" d="M170.4,73.92l-3.12-4.8-1.2-4.32,1.2-2.4h3.6l5,2.16,3.6,2.64,4.56,2.88,2.88,1.2,2.64,1.44s-.81,4.67-.72,4.8A42.46,42.46,0,0,1,186,80.88l-3.12.48-4.8-1.68Z"/></g></g></svg>